<svg width="1001" height="900" viewBox="0 0 1001 900" fill="none" xmlns="http://www.w3.org/2000/svg">
<rect x="66.5" y="55.5" width="933" height="843" fill="url(#paint0_radial_49_35)" stroke="black" stroke-width="3"/>
<path d="M873.5 791C873.5 801.716 863.707 810.5 851.5 810.5C839.293 810.5 829.5 801.716 829.5 791C829.5 780.284 839.293 771.5 851.5 771.5C863.707 771.5 873.5 780.284 873.5 791Z" fill="#51504E" stroke="black"/>
<path d="M786.5 801.5C786.5 806.496 782.669 810.5 778 810.5C773.331 810.5 769.5 806.496 769.5 801.5C769.5 796.504 773.331 792.5 778 792.5C782.669 792.5 786.5 796.504 786.5 801.5Z" fill="#172122" stroke="black"/>
<circle cx="739.5" cy="800.5" r="4" fill="#E8302E" stroke="black"/>
<path d="M420 117H900C916.569 117 930 130.431 930 147V528H420V117Z" fill="#848484"/>
<path d="M845.5 424.5C845.5 658.67 656.339 848.5 423 848.5C189.661 848.5 0.5 658.67 0.5 424.5C0.5 190.33 189.661 0.5 423 0.5C656.339 0.5 845.5 190.33 845.5 424.5Z" fill="url(#paint1_radial_49_35)" stroke="black"/>
<path d="M760.5 424.5C760.5 625.715 609.443 788.5 423.5 788.5C237.557 788.5 86.5 625.715 86.5 424.5C86.5 223.285 237.557 60.5 423.5 60.5C609.443 60.5 760.5 223.285 760.5 424.5Z" stroke="black" stroke-width="5"/>
<path d="M711.5 414.5C711.5 571.382 586.107 698.5 431.5 698.5C276.893 698.5 151.5 571.382 151.5 414.5C151.5 257.618 276.893 130.5 431.5 130.5C586.107 130.5 711.5 257.618 711.5 414.5Z" stroke="black" stroke-width="5"/>
<path d="M567.5 417.5C567.5 494.81 503.487 557.5 424.5 557.5C345.513 557.5 281.5 494.81 281.5 417.5C281.5 340.19 345.513 277.5 424.5 277.5C503.487 277.5 567.5 340.19 567.5 417.5Z" fill="#FD8787" stroke="black"/>
<path d="M916 216.5L894 255L839.5 248.5L803.5 152.5H903.5H916V216.5Z" fill="#323232" stroke="black" stroke-width="2"/>
<path d="M900 174C900 194.753 880.774 212 856.5 212C832.226 212 813 194.753 813 174C813 153.247 832.226 136 856.5 136C880.774 136 900 153.247 900 174Z" fill="#939393" stroke="black" stroke-width="4"/>
<circle cx="422" cy="412" r="10.5" fill="url(#paint2_radial_49_35)" stroke="black"/>
<defs>
<radialGradient id="paint0_radial_49_35" cx="0" cy="0" r="1" gradientUnits="userSpaceOnUse" gradientTransform="translate(421 406) rotate(32.2247) scale(526.028 581.988)">
<stop stop-color="#FFD000" stop-opacity="0"/>
<stop offset="0.913462" stop-color="#7A4C02"/>
</radialGradient>
<radialGradient id="paint1_radial_49_35" cx="0" cy="0" r="1" gradientUnits="userSpaceOnUse" gradientTransform="translate(423 424.5) rotate(90) scale(424.5 423)">
<stop stop-color="#6A6969"/>
<stop offset="1"/>
</radialGradient>
<radialGradient id="paint2_radial_49_35" cx="0" cy="0" r="1" gradientUnits="userSpaceOnUse" gradientTransform="translate(422 412) rotate(102.804) scale(11.2805)">
<stop stop-color="white"/>
<stop offset="1"/>
</radialGradient>
</defs>
</svg>
