<svg width="296" height="583" viewBox="0 0 296 583" fill="none" xmlns="http://www.w3.org/2000/svg">
<path d="M61 443L44.5 478L61 501.5L81 485L94 457L72.5 443H61Z" fill="#3B3B3B" stroke="black"/>
<path d="M221.804 162.779L96.9733 430.481C95.4929 425.854 93.7198 422.896 90.9298 421.581C88.1114 420.251 84.4089 420.674 79.2916 422.376L204.244 154.413C206.496 149.586 212.234 147.497 217.062 149.748C221.97 152.037 224.093 157.871 221.804 162.779Z" fill="url(#paint0_radial_49_30)" stroke="black"/>
<path d="M96.638 435.767C95.3696 439.991 93.7581 444.691 92.0247 448.114C91.1573 449.828 90.2646 451.21 89.3764 452.055C88.4884 452.899 87.637 453.179 86.8229 452.776C85.3762 452.059 84.107 451.164 82.8609 450.219C82.5322 449.97 82.2048 449.718 81.8761 449.464C80.9613 448.758 80.0364 448.044 79.0462 447.38C76.3459 445.569 73.146 444.12 68.233 444.12C67.4628 444.12 66.917 443.947 66.55 443.646C66.1848 443.346 65.9794 442.906 65.918 442.335C65.794 441.183 66.2616 439.541 67.1213 437.623C68.8365 433.797 72.0685 428.96 74.9898 424.937C78.3866 420.259 84.6351 418.862 89.8823 421.309C95.3944 423.879 98.3846 429.952 96.638 435.767Z" fill="url(#paint1_linear_49_30)" stroke="black" stroke-width="0.25"/>
<path d="M250.5 108.5L223.5 157.5C221.388 150.819 218.755 148.529 210 148.5L230 101.5C240.525 101.396 244.971 102.983 250.5 108.5Z" fill="#696969" stroke="black"/>
<path d="M48.5 516L1 558L28 582L70 537.5L48.5 516Z" fill="#2A2A2A" stroke="black"/>
<path d="M87 524L70.5 537L49 515.5L82 485L113 500L87 572L77.5 567L87 524Z" fill="#474747" stroke="black"/>
<path d="M230 102L190 66.5L223 78.5L267 106L250 109C245.035 102.788 240.782 101.09 230 102Z" fill="#0F0F0F" stroke="black" stroke-width="2"/>
<path d="M269.5 106L222 78L247.5 29L295 52.5L269.5 106Z" fill="#2D2D2D" stroke="black"/>
<path d="M190.5 66L222.5 78L248 29L253.5 1.5L216.5 15.5L190.5 66Z" fill="#494A4C" stroke="black"/>
<path d="M291.47 14.5417L253.5 1.5L248 29.5L295 53L291.47 14.5417Z" fill="#656360" stroke="black"/>
<defs>
<radialGradient id="paint0_radial_49_30" cx="0" cy="0" r="1" gradientUnits="userSpaceOnUse" gradientTransform="translate(165 254.5) rotate(113.25) scale(220.398 14.6823)">
<stop stop-color="#FCFBF7"/>
<stop offset="1" stop-color="#272726"/>
</radialGradient>
<linearGradient id="paint1_linear_49_30" x1="95.5" y1="442.5" x2="73.5" y2="433.5" gradientUnits="userSpaceOnUse">
<stop stop-color="#BBBDB8"/>
<stop offset="0.5" stop-color="#6E6E72"/>
<stop offset="1" stop-color="#BBBDB8"/>
</linearGradient>
</defs>
</svg>
